<?xml version="1.0" standalone="no"?>
<!DOCTYPE svg PUBLIC "-//W3C//DTD SVG 20010904//EN"
 "http://www.w3.org/TR/2001/REC-SVG-20010904/DTD/svg10.dtd">
<svg version="1.0" xmlns="http://www.w3.org/2000/svg"
 width="256.000000pt" height="256.000000pt" viewBox="0 0 256.000000 256.000000"
 preserveAspectRatio="xMidYMid meet">

<g transform="translate(0.000000,256.000000) scale(0.100000,-0.100000)"
fill="white" stroke="none">
<path d="M1093 1870 c-169 -44 -289 -144 -372 -307 -114 -228 -64 -548 114
-729 72 -72 123 -104 230 -139 159 -54 346 -42 503 31 56 25 92 52 146 106 82
83 123 148 162 263 37 107 40 259 6 379 -26 92 -46 133 -35 71 4 -22 7 -78 7
-125 0 -69 -4 -95 -23 -134 -33 -67 -70 -88 -147 -84 -66 4 -72 8 -222 128
l-52 42 50 -104 c110 -227 105 -362 -15 -483 -84 -83 -294 -85 -448 -3 -171
92 -287 307 -287 532 0 157 51 277 165 391 79 79 162 128 275 162 94 27 47 30
-57 3z"/>
<path d="M1596 1641 c-4 -5 3 -7 14 -4 23 6 26 13 6 13 -8 0 -17 -4 -20 -9z"/>
<path d="M1648 1633 c6 -2 18 -2 25 0 6 3 1 5 -13 5 -14 0 -19 -2 -12 -5z"/>
<path d="M1698 1623 c7 -3 16 -2 19 1 4 3 -2 6 -13 5 -11 0 -14 -3 -6 -6z"/>
<path d="M1738 1613 c7 -3 16 -2 19 1 4 3 -2 6 -13 5 -11 0 -14 -3 -6 -6z"/>
<path d="M1519 1583 c-13 -16 -12 -17 4 -4 9 7 17 15 17 17 0 8 -8 3 -21 -13z"/>
<path d="M1618 1583 c7 -3 16 -2 19 1 4 3 -2 6 -13 5 -11 0 -14 -3 -6 -6z"/>
<path d="M1715 1579 c16 -4 33 -5 37 -1 4 4 -10 8 -30 9 -37 1 -37 1 -7 -8z"/>
<path d="M1564 1564 c-18 -14 -18 -14 6 -3 31 14 36 19 24 19 -6 0 -19 -7 -30
-16z"/>
<path d="M1476 1555 c-11 -8 -15 -15 -9 -15 6 0 16 7 23 15 16 19 11 19 -14 0z"/>
<path d="M1510 1540 c-23 -7 -23 -8 -3 -9 12 -1 25 4 28 9 3 6 5 10 3 9 -2 -1
-14 -5 -28 -9z"/>
<path d="M1643 1543 c15 -2 37 -2 50 0 12 2 0 4 -28 4 -27 0 -38 -2 -22 -4z"/>
<path d="M1569 1519 c-19 -16 -20 -18 -4 -10 34 17 51 31 39 31 -7 0 -22 -9
-35 -21z"/>
<path d="M1480 1501 c0 -6 4 -13 10 -16 6 -3 7 1 4 9 -7 18 -14 21 -14 7z"/>
<path d="M1653 1483 c9 -2 23 -2 30 0 6 3 -1 5 -18 5 -16 0 -22 -2 -12 -5z"/>
<path d="M1725 1460 c10 -11 20 -20 23 -20 3 0 -3 9 -13 20 -10 11 -20 20 -23
20 -3 0 3 -9 13 -20z"/>
<path d="M945 1456 c-42 -18 -83 -69 -91 -112 -12 -67 19 -132 86 -175 24 -16
24 -16 6 -43 -33 -51 -11 -36 74 49 l85 85 -57 0 c-65 0 -91 18 -86 59 5 41
39 51 173 51 l121 0 49 50 49 50 -189 0 c-135 -1 -199 -5 -220 -14z"/>
<path d="M1575 1439 c-4 -6 -5 -12 -2 -15 2 -3 7 2 10 11 7 17 1 20 -8 4z"/>
<path d="M1570 1351 c0 -6 4 -13 10 -16 6 -3 7 1 4 9 -7 18 -14 21 -14 7z"/>
<path d="M1746 1343 c-6 -14 -5 -15 5 -6 7 7 10 15 7 18 -3 3 -9 -2 -12 -12z"/>
<path d="M1215 1240 l-90 -90 61 0 c66 0 84 -11 84 -50 0 -45 -14 -50 -155
-50 l-131 0 -54 -55 -54 -55 184 0 c208 0 247 10 290 69 57 81 28 186 -67 240
-15 8 -14 12 5 45 12 20 20 36 19 36 -1 0 -43 -40 -92 -90z"/>
<path d="M1648 1293 c12 -2 30 -2 40 0 9 3 -1 5 -23 4 -22 0 -30 -2 -17 -4z"/>
</g>
</svg>
